# xmcd
#
# Track frame offsets: 
#        150
#        55377
#        74665
#        102102
#        143960
#        175560
#        200509
#        235157
#        267922
#        283142
#        298687
#        316015
#        343572
#
# Disc length: 4696 seconds
#
# Revision: 2
# Processed by: cddbd v1.5.2PL0 Copyright (c) Steve Scherf et al.
# Submitted via: ExactAudioCopy v1.0b3
#
DISCID=c912560d
DTITLE=Various Artist - Svensk jazzhistoria. Vol. 10 - Swedish jazz 1
DTITLE=965-1969 - Watch out!
DYEAR=2005
DGENRE=Jazz
TTITLE0=Jan Johansson och Jazzstudioorkestern - Till exempel I, II, II
TTITLE0=I
TTITLE1=Monica Zetterlund, Monica Dominique och Jazzstudioorkestern - 
TTITLE1=What's new
TTITLE2=Gilbert Holmströms kvintett and Göteborgs Kammarkör - Resan till
TTITLE2=Hellas
TTITLE3=Steffan Abeleen quintet - Dégagé
TTITLE4=George Russell och Emanons storband - Waltz from outer space
TTITLE5=Berndt Egerbladh and his quartet - Sunday morning
TTITLE6=Lars-Göran Ulanders septet - Minus 38 grader Celsius
TTITLE7=Kurt Järnbergs kvintett - Nahkiainen
TTITLE8=Blunck's Lucky Seven - Up in Michigan
TTITLE9=Cave Stompers - Lapprika Paprika
TTITLE10=Jazz Doctors - Kusin Vitamin
TTITLE11=Erik Norströms kvintett - Start
TTITLE12=Claes Rosendahls orkester - En gång jag seglar i hamn
EXTD=YEAR: 1967
EXTT0=
EXTT1=
EXTT2=
EXTT3=
EXTT4=
EXTT5=
EXTT6=
EXTT7=
EXTT8=
EXTT9=
EXTT10=
EXTT11=
EXTT12=
PLAYORDER=
